<svg width="63" height="61" xmlns="http://www.w3.org/2000/svg"><path d="M62.616 37.611v23.128H49.207V39.161c0-5.418-1.936-9.118-6.791-9.118-3.705 0-5.906 2.491-6.878 4.903-.353.862-.444 2.059-.444 3.268v22.524h-13.41s.18-36.546 0-40.329h13.411v5.715c-.027.045-.065.089-.089.132h.089v-.132c1.782-2.742 4.96-6.662 12.085-6.662 8.822 0 15.436 5.764 15.436 18.149zM7.656.969C3.069.969.068 3.98.068 7.936c0 3.872 2.914 6.97 7.412 6.97h.087c4.677 0 7.585-3.098 7.585-6.97C15.063 3.98 12.244.969 7.656.969zM.865 60.739H14.27v-40.33H.865v40.33z" fill="#F1F2F2" fill-rule="nonzero"/></svg>