<?xml version="1.0" encoding="utf-8"?>
<!-- Generator: Adobe Illustrator 23.1.1, SVG Export Plug-In . SVG Version: 6.00 Build 0)  -->
<svg version="1.1" id="Layer_1" xmlns="http://www.w3.org/2000/svg" xmlns:xlink="http://www.w3.org/1999/xlink" x="0px" y="0px"
	 viewBox="0 0 149 65" style="enable-background:new 0 0 149 65;" xml:space="preserve">
<style type="text/css">
	.st0{fill:#FFFFFF;}
</style>
<g>
	<path class="st0" d="M30.2,18.2h-8.3v-6.9c0-0.4-0.2-0.7-0.5-0.9L2.6,0.6c-0.3-0.2-0.7-0.2-1,0C1.3,0.8,1.1,1.2,1.1,1.5v17.7
		c0,0.6,0.5,1,1,1h17.7v7.8H2.1c-0.6,0-1,0.5-1,1V35c0,0.6,0.5,1,1,1h17.7v7.8H2.1c-0.6,0-1,0.5-1,1v18.7c0,0.4,0.2,0.7,0.5,0.9
		c0.2,0.1,0.3,0.1,0.5,0.1c0.2,0,0.3,0,0.5-0.1l18.7-9.8c0.3-0.2,0.5-0.5,0.5-0.9v-7.9h8.3c0.6,0,1-0.5,1-1V35c0-0.6-0.5-1-1-1h-8.3
		v-3.9h8.3c0.6,0,1-0.5,1-1v-9.8C31.2,18.7,30.7,18.2,30.2,18.2z M3.1,3.2L19.8,12v6.3H3.1V3.2z M3.1,30.1h16.7V34H3.1V30.1z
		 M19.8,53.1L3.1,61.9v-16h16.7V53.1z M29.2,43.8h-7.3V36h7.3V43.8z M29.2,28.1h-7.3v-7.8h7.3V28.1z"/>
</g>
<g>
	<path class="st0" d="M43.1,22.5h15.3v4H47.5v4.3h9.6v4h-9.6v7.8h-4.4V22.5z"/>
	<path class="st0" d="M61.6,33.9V22.5H66v11.4c0,3.3,1.6,5,4.3,5c2.7,0,4.3-1.6,4.3-4.8V22.5h4.4v11.3c0,6.1-3.4,9.1-8.8,9.1
		C64.9,42.9,61.6,39.9,61.6,33.9z"/>
	<path class="st0" d="M83.6,22.5h9.2c2.6,0,4.5,0.7,5.9,2c1.1,1.1,1.7,2.7,1.7,4.6c0,3.2-1.8,5.3-4.3,6.2l4.9,7.2h-5.2l-4.4-6.4H88
		v6.4h-4.4V22.5z M92.5,32.2c2.2,0,3.4-1.1,3.4-2.9c0-1.9-1.3-2.9-3.5-2.9H88v5.8H92.5z"/>
	<path class="st0" d="M103,39.6l2.6-3.1c1.8,1.5,3.7,2.4,6,2.4c1.8,0,2.9-0.7,2.9-2c0-1.1-0.7-1.7-4-2.6c-4-1-6.7-2.2-6.7-6.2
		c0-3.6,2.9-6.1,7-6.1c2.9,0,5.4,0.9,7.5,2.6l-2.3,3.3c-1.8-1.2-3.5-2-5.2-2c-1.7,0-2.6,0.8-2.6,1.8c0,1.3,0.9,1.8,4.3,2.6
		c4.1,1.1,6.4,2.5,6.4,6.1c0,4-3,6.2-7.4,6.2C108.5,42.8,105.4,41.8,103,39.6z"/>
	<path class="st0" d="M129.2,22.3h4.1l8.6,20.2h-4.6l-1.8-4.5h-8.5l-1.8,4.5h-4.5L129.2,22.3z M133.9,34.1l-2.7-6.5l-2.7,6.5H133.9z
		"/>
</g>
</svg>
