<?xml version="1.0" encoding="utf-8"?>
<!-- Generator: Adobe Illustrator 23.1.1, SVG Export Plug-In . SVG Version: 6.00 Build 0)  -->
<svg version="1.1" id="Layer_1" xmlns="http://www.w3.org/2000/svg" xmlns:xlink="http://www.w3.org/1999/xlink" x="0px" y="0px"
	 viewBox="0 0 20 40" style="enable-background:new 0 0 20 40;" xml:space="preserve">
<style type="text/css">
	.st0{fill:#21BBAF;}
</style>
<g>
	<path class="st0" d="M18.4,11.1h-5.2V6.8c0-0.2-0.1-0.4-0.3-0.6L1.3,0.1C1.1,0,0.8,0,0.6,0.1C0.5,0.2,0.3,0.4,0.3,0.7v11
		c0,0.3,0.3,0.6,0.6,0.6h11v4.9H1c-0.3,0-0.6,0.3-0.6,0.6v3.7c0,0.3,0.3,0.6,0.6,0.6h11V27H1c-0.3,0-0.6,0.3-0.6,0.6v11.7
		c0,0.2,0.1,0.4,0.3,0.5C0.7,39.9,0.9,40,1,40c0.1,0,0.2,0,0.3-0.1l11.7-6.1c0.2-0.1,0.3-0.3,0.3-0.6v-4.9h5.2
		c0.3,0,0.6-0.3,0.6-0.6v-6.1c0-0.3-0.3-0.6-0.6-0.6h-5.2v-2.4h5.2c0.3,0,0.6-0.3,0.6-0.6v-6.1C19.1,11.4,18.8,11.1,18.4,11.1z
		 M1.6,1.7L12,7.2v3.9H1.6V1.7z M1.6,18.5H12v2.4H1.6V18.5z M12,32.8L1.6,38.3v-10H12V32.8z M17.8,27h-4.6v-4.9h4.6V27z M17.8,17.2
		h-4.6v-4.9h4.6V17.2z"/>
</g>
</svg>
