<svg width="75" height="85" viewBox="0 0 75 85" fill="none" xmlns="http://www.w3.org/2000/svg" class="svg-icon-light_svg__ThGf5 svg-icon-light_svg_1x__JiAxH no-investments-banner_icon__09IRI"><path d="M3 26.113v9.343h72v-9.082a6 6 0 0 0-2.724-5.027L45.783 4.078a10 10 0 0 0-5.46-1.622H33.76a10 10 0 0 0-6.02 2.015L5.388 21.322A6 6 0 0 0 3 26.113Z" fill="#694424"></path><path d="M8.25 35.018H75v43.938a6 6 0 0 1-6 6H8.25L5 35.018h3.25Z" fill="#7D4B1F"></path><path opacity="0.8" d="M5 35.018h62a2 2 0 0 1 2 2v39.938a8 8 0 0 1-8 8H8.25L5 35.018Z" fill="#583619"></path><path d="M0 37.018a2 2 0 0 1 2-2h2.6a1 1 0 0 1 .603.202l18.135 13.702a5 5 0 0 0 3.014 1.011H38.12a5 5 0 0 0 2.536-.691L64.58 35.156a1 1 0 0 1 .507-.138h.663a4 4 0 0 1 4 4v37.938a8 8 0 0 1-8 8H8a8 8 0 0 1-8-8V37.018Z" fill="#AE692C"></path><path d="m70.046 76.947-.044-39.932a2 2 0 0 0-2-1.997h-3.087a1 1 0 0 0-.507.138L40 49.518v35.438h22.046a8 8 0 0 0 8-8.01Z" fill="#925A29"></path><path d="M26 49.017a2 2 0 0 1 2-2h4v10h-4a2 2 0 0 1-2-2v-6Z" fill="#C4C4C4"></path><path d="M32 47.017h4a2 2 0 0 1 2 2v6a2 2 0 0 1-2 2h-4v-10Z" fill="#999595"></path><path d="M33 2.018a2 2 0 0 1 2-2h4a2 2 0 0 1 2 2v3a2 2 0 0 1-2 2h-4a2 2 0 0 1-2-2v-3Z" fill="#C4C4C4"></path><path d="M37 0h2a2 2 0 0 1 2 2v3.018a2 2 0 0 1-2 2h-2V0Z" fill="#999494"></path></svg>